<?xml version="1.0" encoding="iso-8859-1"?>
<!-- Generator: Adobe Illustrator 19.0.0, SVG Export Plug-In . SVG Version: 6.00 Build 0)  -->
<svg version="1.1" id="Capa_1" xmlns="http://www.w3.org/2000/svg" xmlns:xlink="http://www.w3.org/1999/xlink" x="0px" y="0px"
	 viewBox="0 0 512 512" style="enable-background:new 0 0 512 512;" xml:space="preserve">
<g>
	<g>
		<path style="fill:#6B7B8B;" d="M384,0H56C38.355,0,24,14.355,24,32v448c0,17.645,14.355,32,32,32h328c17.645,0,32-14.355,32-32V32
			C416,14.355,401.645,0,384,0z"/>
		<path style="fill:#55697A;" d="M352,496c4.418,0,8-3.582,8-8V24c0-4.418-3.582-8-8-8H28.305C25.573,20.711,24,26.173,24,32v448
			c0,5.827,1.573,11.289,4.305,16H352z"/>
		<path style="fill:#FD8E61;" d="M368,96h-32c-4.418,0-8,3.582-8,8v80c0,4.418,3.582,8,8,8h32c8.837,0,16-7.163,16-16v-64
			C384,103.163,376.837,96,368,96z"/>
		<path style="fill:#FDDD88;" d="M368,208h-32c-4.418,0-8,3.582-8,8v80c0,4.418,3.582,8,8,8h32c8.837,0,16-7.163,16-16v-64
			C384,215.163,376.837,208,368,208z"/>
		<path style="fill:#49DFE5;" d="M368,320h-32c-4.418,0-8,3.582-8,8v80c0,4.418,3.582,8,8,8h32c8.837,0,16-7.163,16-16v-64
			C384,327.163,376.837,320,368,320z"/>
		<path style="fill:#F4F6F7;" d="M32,49.75v412.5c0,5.385,4.365,9.75,9.75,9.75h284.5c5.385,0,9.75-4.365,9.75-9.75V49.75
			c0-5.385-4.365-9.75-9.75-9.75H41.75C36.365,40,32,44.365,32,49.75z M81.947,375.923c-14.788,1.166-27.036-11.083-25.87-25.871
			c0.918-11.633,10.343-21.058,21.976-21.975c14.788-1.166,27.036,11.083,25.87,25.871
			C103.005,365.581,93.58,375.006,81.947,375.923z M81.947,279.923c-14.788,1.166-27.036-11.083-25.87-25.871
			c0.918-11.633,10.343-21.058,21.976-21.975c14.788-1.166,27.036,11.083,25.87,25.871
			C103.005,269.581,93.58,279.006,81.947,279.923z M81.947,183.923c-14.788,1.166-27.036-11.083-25.87-25.871
			c0.918-11.633,10.343-21.058,21.976-21.975c14.788-1.166,27.036,11.083,25.87,25.871
			C103.005,173.581,93.58,183.006,81.947,183.923z"/>
		<g>
			<path style="fill:#D5D9DE;" d="M64,168H8c-4.418,0-8-3.582-8-8s3.582-8,8-8h56c4.418,0,8,3.582,8,8S68.418,168,64,168z"/>
			<path style="fill:#D5D9DE;" d="M64,264H8c-4.418,0-8-3.582-8-8s3.582-8,8-8h56c4.418,0,8,3.582,8,8S68.418,264,64,264z"/>
			<path style="fill:#D5D9DE;" d="M64,360H8c-4.418,0-8-3.582-8-8s3.582-8,8-8h56c4.418,0,8,3.582,8,8S68.418,360,64,360z"/>
		</g>
		<g>
			<path style="fill:#D5D9DE;" d="M296,168H120c-4.418,0-8-3.582-8-8s3.582-8,8-8h176c4.418,0,8,3.582,8,8S300.418,168,296,168z"/>
			<path style="fill:#D5D9DE;" d="M296,264H120c-4.418,0-8-3.582-8-8s3.582-8,8-8h176c4.418,0,8,3.582,8,8S300.418,264,296,264z"/>
			<path style="fill:#D5D9DE;" d="M296,360H120c-4.418,0-8-3.582-8-8s3.582-8,8-8h176c4.418,0,8,3.582,8,8S300.418,360,296,360z"/>
		</g>
	</g>
	<g>
		<path style="fill:#55697A;" d="M479.994,432c-4.265,0-7.808-3.365-7.987-7.667c-0.184-4.414,3.246-8.143,7.66-8.326L496,415.326
			V305c0-4.418,3.582-8,8-8s8,3.582,8,8v118c0,4.289-3.382,7.814-7.667,7.993l-24,1C480.22,431.998,480.106,432,479.994,432z"/>
		<path style="fill:#55697A;" d="M460,88c-4.418,0-8-3.582-8-8V48c0-4.418,3.582-8,8-8s8,3.582,8,8v32C468,84.418,464.418,88,460,88
			z"/>
		<path style="fill:#FDDD88;" d="M480,320l-24,16l-16-16V100c0-11.046,8.954-20,20-20h0c11.046,0,20,8.954,20,20V320z"/>
		<path style="fill:#FCD56A;" d="M468,81.675c-2.451-1.072-5.154-1.675-8-1.675c-11.046,0-20,8.954-20,20v220l8,8l8-8V100
			C456,91.801,460.939,84.763,468,81.675z"/>
		<path style="fill:#76E7EB;" d="M480,320.002V440c0,8.837-7.163,16-16,16h-8c-8.837,0-16-7.163-16-16V320.002"/>
		<path style="fill:#1BD7DE;" d="M440,320.002V440c0,8.836,7.163,16,16,16h8c1.384,0,2.719-0.194,4-0.524
			c-6.897-1.779-12-8.023-12-15.476V320.002"/>
	</g>
</g>
<g>
</g>
<g>
</g>
<g>
</g>
<g>
</g>
<g>
</g>
<g>
</g>
<g>
</g>
<g>
</g>
<g>
</g>
<g>
</g>
<g>
</g>
<g>
</g>
<g>
</g>
<g>
</g>
<g>
</g>
</svg>
